<?xml version="1.0" ?>
<svg version="1.1" encoding="iso-8859-1" baseProfile="full"
xmlns:dc="http://purl.org/dc/elements/1.1/"
xmlns:cc="http://creativecommons.org/ns#"
xmlns:rdf="http://www.w3.org/1999/02/22-rdf-syntax-ns#"
xmlns="http://www.w3.org/2000/svg"
xmlns:xlink="http://www.w3.org/1999/xlink"
xmlns:ev="http://www.w3.org/2001/xml-events"
xmlns:sodipodi="http://sodipodi.sourceforge.net/DTD/sodipodi-0.dtd"
xmlns:inkscape="http://www.inkscape.org/namespaces/inkscape"
inkscape:version="0.46"
inkscape:output_extension="org.inkscape.output.svg.inkscape"
viewBox="0 0 801 566" xml:space="preserve">
<title>Magics plot</title>
<metadata id="MAGICSmetadata">
<rdf:RDF><cc:Work rdf:about="">
	<dc:format>image/svg+xml</dc:format>
	<dc:title>Magics plot</dc:title>
	<dc:author>dqc on omen</dc:author>
	<dc:date>Mon Oct 26 19:06:48 2020</dc:date>
	<dc:language>en-GB</dc:language>
	<dc:publisher><cc:Agent>
	 <dc:title>Magics 4.3.0 (64 bit)</dc:title>
	</cc:Agent></dc:publisher>
	<dc:coverage>Plot of meteorological data</dc:coverage>
</cc:Work></rdf:RDF>
</metadata>
<g id="page" transform="translate(0,565.657)" vector-effect="non-scaling-stroke">
<g id="Page0">
<g inkscape:groupmode="layer" inkscape:label="Coastline" id="Coastline"><title>Coastline</title>
<g>
<g id="drawing" transform="translate(40,392.75)">
</g>
</g>
</g>
<g inkscape:groupmode="layer" inkscape:label="no_name" id="no_name"><title>no_name</title>
<g>
<g id="drawing" transform="translate(40,392.75)">
<g stroke-width="2px" stroke="rgb(255,0,0)" fill="none">
<path d="M172.405 -810.259l-0.394521 2.6904l-0.394521 1.3452l-0.394521 5.3808l-0.394521 0l-0.394521 -1.7936l-0.394521 -1.7936l-0.394521 2.242l-0.394521 -2.6904l-0.394521 -2.6904l-0.394521 0.4484l-0.394521 1.3452l-0.394521 3.5872l-0.394521 1.7936l-0.394521 2.242l-0.394521 0l-0.394521 0.4484l-0.394521 -0.8968l-0.394521 -1.3452l-0.394521 -1.3452l-0.394521 -0.4484l-0.394521 0.4484l-0.394521 0.8968l-0.394521 1.7936l-0.394521 6.726l-0.394521 -1.7936l-0.394521 -1.7936l-0.394521 -1.3452l-0.394521 0l-0.394521 4.484l-0.394521 1.3452l-0.394521 0.8968l-0.394521 -0.4484l-0.394521 -1.3452l-0.394521 -0.8968l-0.394521 1.3452l-0.394521 -0.8968l-0.394521 -0.8968l-0.394521 2.242l-0.394521 0l-0.394521 8.0712l-0.394521 0l-0.394521 2.6904l-0.394521 4.0356l-0.394521 3.5872l-0.394521 -0.8968l-0.394521 -1.3452l-0.394521 0l-0.394521 2.6904l-0.394521 4.0356l-0.394521 11.21l-0.394521 0.4484l-0.394521 0l-0.394521 -0.4484l-0.394521 -0.4484l-0.394521 -0.4484l-0.394521 0.4484l-0.394521 4.9324l-0.394521 4.9324l-0.394521 0l-0.394521 2.6904l-0.394521 4.9324l-0.394521 0.8968l-0.394521 0l-0.394521 3.5872l-0.394521 1.7936l-0.394521 9.4164l-0.394521 3.1388l-0.394521 6.726l-0.394521 10.7616l-0.394521 7.1744l-0.394521 10.7616l-0.394521 8.968l-0.394521 20.6264l-0.394521 6.2776l-0.394521 8.0712l-0.394521 4.0356l-0.394521 3.5872l-0.394521 0l-0.394521 5.3808l-0.394521 3.1388l-0.394521 -0.4484l-0.394521 -0.4484l-0.394521 -0.4484l-0.394521 -0.4484l-0.394521 -0.8968l-0.394521 -0.4484l-0.394521 -0.4484l-0.394521 0l-0.394521 0.8968l-1.18356 0l-0.394521 -0.4484l-0.394521 0l-0.394521 3.1388l-0.394521 2.242l-0.394521 4.484l-0.394521 0.8968l-0.394521 -1.3452l-0.394521 -1.7936l-0.394521 6.2776l-0.394521 4.9324l-0.394521 -0.4484l-0.394521 -0.4484l-0.394521 0.4484l-0.394521 2.242l-0.394521 6.726l-0.394521 0.8968l-0.394521 -0.8968l-0.394521 -0.4484l-0.394521 2.242l-0.394521 -1.3452l-0.394521 7.6228l-0.394521 -1.3452l-0.394521 0l-0.394521 7.1744l-0.394521 0.4484l-0.394521 0l-0.394521 -0.4484l-0.394521 -0.4484l-0.394521 -0.8968l-0.394521 5.8292l-0.394521 3.5872l-0.394521 0l-0.394521 3.1388l-0.394521 2.6904l-0.394521 10.7616l-0.394521 17.0392l-0.394521 -0.4484l-0.394521 0l-0.394521 4.0356l-0.394521 -0.4484l-0.394521 0l-0.394521 4.484l-0.394521 2.6904l-0.394521 7.6228l-0.394521 -1.3452l-0.394521 -0.8968l-0.394521 -1.7936l-0.394521 -0.8968l-0.394521 -1.7936l-0.394521 0l-0.394521 21.0748l-0.394521 -0.8968l-0.394521 -2.242l-0.394521 14.3488l-0.394521 -1.3452l-0.394521 -2.242l-0.394521 1.3452l-0.394521 2.6904l-0.394521 -0.8968l-0.394521 -1.7936l-0.394521 17.4876l-0.394521 -0.8968l-0.394521 1.7936l-0.394521 1.3452l-0.394521 -0.8968l-0.394521 24.662l-0.394521 5.8292l-0.394521 -1.3452l-0.394521 -0.8968l-0.394521 0.4484l-0.394521 -1.3452l-0.394521 0.4484l-0.394521 2.242l-0.394521 -1.3452l-0.394521 -0.8968l-0.394521 -1.3452l-0.394521 -1.3452l-0.394521 -1.7936l-0.394521 -1.3452l-0.394521 -1.7936l-0.394521 -1.7936l-0.394521 -2.242l-0.394521 -3.1388l-0.394521 -2.6904l-0.394521 -2.6904l-0.394521 -3.1388l-0.394521 -3.1388l-0.394521 7.6228l-0.394521 -0.8968l-0.394521 -4.0356l-0.394521 -4.0356l-0.394521 -3.5872l-0.394521 -4.484l-0.394521 -4.484l-0.394521 -3.5872l-0.394521 -3.5872l-0.394521 -4.484l-0.394521 -3.5872l-0.394521 -5.8292l-0.394521 -3.1388l-0.394521 50.6692l-0.394521 -3.1388l-0.394521 -3.1388l-0.394521 -3.1388l-0.394521 -0.4484l-0.394521 0.4484l-0.394521 -1.3452l-0.394521 -3.5872l-0.394521 -3.5872l-0.394521 2.6904l-0.394521 13.0036l-0.394521 3.1388l-0.394521 -0.8968l-0.394521 -0.8968l-0.394521 -3.1388l-0.394521 11.21l-0.394521 -1.3452l-0.394521 -2.242l-0.394521 -3.1388l-0.394521 -3.5872l-0.394521 -4.0356l-0.394521 -4.0356l-0.394521 -4.0356l-0.394521 -4.9324l-0.394521 -5.3808l-0.394521 -5.8292l-0.394521 -5.3808l-0.394521 -4.484l-0.394521 0.8968l-0.394521 -3.1388l-0.394521 -5.8292l-0.394521 -5.3808l-0.394521 -6.726l-0.394521 -7.1744l-0.394521 -7.1744l-0.394521 -8.0712l-0.394521 -7.1744l-0.394521 -6.2776l-0.394521 -6.726l-0.394521 -7.6228l-0.394521 -0.4484l-0.394521 -0.4484l-0.394521 20.178l-0.394521 2.242l-0.394521 -6.2776l-0.394521 -7.6228l-0.394521 -5.8292l-0.394521 -4.0356l-0.394521 -7.1744l-0.394521 -8.5196l-0.394521 49.324l-0.394521 56.9468l-0.394521 -5.8292l-0.394521 -7.6228l-0.394521 -7.6228l-0.394521 -4.9324l-0.394521 17.936l-0.394521 24.2136l-0.394521 -2.6904l-0.394521 -3.5872l-0.394521 -4.9324l-0.394521 -2.6904l-0.394521 -4.484l-0.394521 13.9004l-0.394521 -4.484l-0.394521 -4.484l-0.394521 -5.3808l-0.394521 -6.726l-0.394521 -6.726l-0.394521 -4.0356l-0.394521 10.7616l-0.394521 -1.3452l-0.394521 -7.1744l-0.394521 -7.6228l-0.394521 -8.0712l-0.394521 -7.1744l-0.394521 -6.2776l-0.394521 -6.726l-0.394521 -6.726l-0.394521 12.1068l-0.394521 4.9324l-0.394521 -7.1744l-0.394521 -9.4164l-0.394521 -7.1744l-0.394521 -5.8292l-0.394521 -6.2776l-0.394521 -3.5872l-0.394521 -1.7936l-0.394521 -5.8292l-0.394521 4.0356l-0.394521 0l-0.394521 -0.8968l-0.394521 -4.484l-0.394521 -4.0356l-0.394521 -4.0356l-0.394521 -5.8292l-0.394521 -9.4164l-0.394521 10.3132l-0.394521 -0.8968l-0.394521 -3.5872l-0.394521 -4.484l-0.394521 2.242l-0.394521 -1.3452l-0.394521 4.484l-0.394521 4.484l-0.394521 2.6904l-0.394521 5.3808l-0.394521 -2.6904l-0.394521 -0.8968l-0.394521 0l-0.394521 1.3452l-0.394521 -4.0356l-0.394521 -5.8292l-0.394521 -3.5872l-0.394521 0l-0.394521 -4.484l-0.394521 -6.726l-0.394521 -6.726l-0.394521 -6.726l-0.394521 -6.726l-0.394521 -6.2776l-0.394521 -7.1744l-0.394521 -5.8292l-0.394521 -7.1744l-0.394521 -7.1744l-0.394521 -6.726l-0.394521 -5.3808l-0.394521 -5.8292l-0.394521 -6.2776l-0.394521 -5.8292l-0.394521 -6.726l-0.394521 -5.8292l-0.394521 -5.8292l-0.394521 -4.484l-0.394521 -3.5872l-0.394521 -4.484l-0.394521 -2.6904l-0.394521 -4.9324l-0.394521 -4.0356l-0.394521 -4.484l-0.394521 -4.484l-0.394521 -4.9324l-0.394521 -1.7936l-0.394521 13.452l-0.394521 5.8292l-0.394521 -0.4484l-0.394521 -3.5872l-0.394521 -3.5872l-0.394521 -3.5872l-0.394521 -3.1388l-0.394521 -3.5872l-0.394521 -3.5872l-0.394521 -2.6904l-0.394521 -3.1388l-0.394521 -3.1388l-0.394521 3.5872l-0.394521 -0.4484l-0.394521 3.5872l-0.394521 20.6264l-0.394521 2.6904l-0.394521 -1.7936l-0.394521 -1.3452l-0.394521 0.4484l-0.394521 2.242l-0.394521 2.242l-0.394521 0.4484l-0.394521 19.7296l-0.394521 3.5872l-0.394521 0.4484l-0.394521 -1.3452l-0.394521 -1.7936l-0.394521 -0.8968l-0.394521 -1.3452l-0.394521 -1.3452l-0.394521 -2.242l-0.394521 0.4484l-0.394521 5.3808l-0.394521 8.5196l-0.394521 -2.242l-0.394521 -0.8968l-0.394521 1.7936l-0.394521 0.8968l-0.394521 -1.3452l-0.394521 -1.7936l-0.394521 2.6904l-0.394521 1.3452l-0.394521 -0.8968l-0.394521 0l-0.394521 1.7936l-0.394521 0l-0.394521 -1.3452l-0.394521 -1.7936l-0.394521 -0.4484l-0.394521 0.8968l-0.394521 -1.3452l-0.394521 1.7936l-0.394521 12.5552l-0.394521 3.5872l-0.394521 0l-0.394521 2.242l-0.394521 6.726l-0.394521 1.3452l-0.394521 -0.4484l-0.394521 -1.3452l-0.394521 2.242l-0.394521 4.484l-0.394521 -0.4484l-0.394521 -0.8968l-0.394521 -1.3452l-0.394521 -1.3452l-0.394521 0l-0.394521 2.242l-0.394521 6.2776l-0.394521 5.3808l-0.394521 3.1388l-0.394521 -1.3452l-0.394521 0.4484l-0.394521 4.484l-0.394521 1.7936l-0.394521 0l-0.394521 -0.8968l-0.394521 1.3452l-0.394521 -0.4484l-0.394521 8.0712l-0.394521 5.3808l-0.394521 6.726l-0.394521 2.242l-0.394521 9.8648l-0.394521 4.0356l-0.394521 0.4484l-0.394521 14.3488l-0.394521 3.1388l-0.394521 -0.4484l-0.394521 -0.4484l-0.394521 0l-0.394521 0.4484l-0.394521 0.4484l-0.394521 0.4484l-0.394521 3.1388l-0.394521 1.3452l-0.394521 0.8968l-0.394521 2.6904l-0.394521 -0.4484l-0.394521 0l-0.394521 -0.4484"/>
<path d="M720 -703.54l-0.394521 -0.4484l-0.394521 -0.8968l-0.394521 -0.8968l-0.394521 -0.4484l-0.394521 12.5552l-0.394521 2.242l-0.789041 0l-0.394521 -0.4484l-0.394521 -0.4484l-0.394521 0l-0.394521 -0.4484l-1.18356 0l-0.394521 0.4484l-0.394521 -1.3452l-0.394521 -0.4484l-0.394521 3.5872l-0.394521 4.0356l-0.394521 2.242l-0.394521 4.0356l-0.394521 4.484l-0.394521 0l-0.394521 -0.4484l-0.394521 -0.4484l-0.394521 -0.8968l-0.394521 0.4484l-0.394521 9.4164l-0.394521 6.726l-0.394521 12.1068l-0.394521 11.21l-0.394521 -0.8968l-0.394521 7.1744l-0.394521 10.7616l-0.394521 1.3452l-0.394521 -1.7936l-0.394521 6.2776l-0.394521 1.3452l-0.394521 -1.3452l-0.394521 -0.8968l-0.394521 8.968l-0.394521 20.6264l-0.394521 13.0036l-0.394521 12.1068l-0.394521 -0.4484l-0.394521 0l-0.394521 2.242l-0.394521 -0.4484l-0.394521 3.1388l-0.394521 7.6228l-0.394521 13.0036l-0.394521 5.3808l-0.394521 12.5552l-0.394521 12.1068l-0.394521 21.5232l-0.394521 13.9004l-0.394521 -0.8968l-0.394521 -0.8968l-0.394521 -0.8968l-0.394521 1.7936l-0.394521 0.8968l-0.394521 5.3808l-0.394521 7.1744l-0.394521 15.2456l-0.394521 8.0712l-0.394521 1.3452l-0.394521 -0.4484l-0.394521 -0.4484l-0.394521 -0.8968l-0.394521 -0.4484l-0.394521 -0.4484l-0.394521 -0.8968l-0.394521 -0.4484l-0.394521 -0.4484l-0.394521 2.6904l-0.394521 0.4484l-0.394521 -0.4484l-0.394521 -0.4484l-0.394521 -0.4484l-0.394521 -0.4484l-0.394521 -0.4484l-0.394521 -0.4484l-0.394521 -0.8968l-0.394521 -0.4484l-0.394521 -0.4484l-0.394521 -0.8968l-0.394521 -0.4484l-0.394521 -0.4484l-0.394521 -1.3452l-0.394521 -0.4484l-0.394521 -0.8968l-0.394521 -0.8968l-0.394521 -0.8968l-0.394521 -1.3452l-0.394521 2.242l-0.394521 4.0356l-0.394521 -0.8968l-0.394521 -1.3452l-0.394521 -0.8968l-0.394521 -0.8968l-0.394521 -1.3452l-0.394521 -0.8968l-0.394521 -1.7936l-0.394521 -2.242l-0.394521 -1.7936l-0.394521 0.8968l-0.394521 -1.3452l-0.394521 -2.242l-0.394521 -2.242l-0.394521 -3.1388l-0.394521 -2.242l-0.394521 5.3808l-0.394521 4.0356l-0.394521 -1.7936l-0.394521 1.3452l-0.394521 -2.6904l-0.394521 -2.242l-0.394521 -2.6904l-0.394521 -2.6904l-0.394521 -3.5872l-0.394521 -3.5872l-0.394521 -4.484l-0.394521 -3.1388l-0.394521 -4.484l-0.394521 -4.484l-0.394521 1.3452l-0.394521 0l-0.394521 -4.0356l-0.394521 -1.3452l-0.394521 -0.8968l-0.394521 19.7296l-0.394521 19.7296l-0.394521 0.8968l-0.394521 -1.3452l-0.394521 -0.8968l-0.394521 -2.6904l-0.394521 -3.1388l-0.394521 -4.484l-0.394521 14.7972l-0.394521 0l-0.394521 -1.3452l-0.394521 -1.3452l-0.394521 -1.7936l-0.394521 -1.7936l-0.394521 -2.242l-0.394521 -1.7936l-0.394521 -2.6904l-0.394521 -3.5872l-0.394521 -4.0356l-0.394521 -4.484l-0.394521 0l-0.394521 -3.1388l-0.394521 -3.1388l-0.394521 -4.0356l-0.394521 -4.484l-0.394521 1.3452l-0.394521 1.3452l-0.394521 -3.1388l-0.394521 -3.5872l-0.394521 -0.4484l-0.394521 0l-0.394521 -4.9324l-0.394521 -4.484l-0.394521 -3.1388l-0.394521 -2.6904l-0.394521 -4.0356l-0.394521 -1.7936l-0.394521 0l-0.394521 1.3452l-0.394521 5.3808l-0.394521 -1.7936l-0.394521 -6.2776l-0.394521 -6.2776l-0.394521 -5.8292l-0.394521 -2.6904l-0.394521 -4.484l-0.394521 -7.6228l-0.394521 -7.6228l-0.394521 -1.7936l-0.394521 5.3808l-0.394521 -0.4484l-0.394521 10.7616l-0.394521 2.242l-0.394521 -7.1744l-0.394521 -2.6904l-0.394521 -8.968l-0.394521 -6.726l-0.394521 -3.5872l-0.394521 -2.6904l-0.394521 10.3132l-0.394521 19.7296l-0.394521 -5.8292l-0.394521 -4.9324l-0.394521 -4.9324l-0.394521 -4.9324l-0.394521 -1.3452l-0.394521 -3.5872l-0.394521 -7.6228l-0.394521 -6.2776l-0.394521 -8.0712l-0.394521 -8.968l-0.394521 -8.968l-0.394521 -9.8648l-0.394521 -8.0712l-0.394521 8.0712l-0.394521 -3.5872l-0.394521 -4.9324l-0.394521 -2.6904l-0.394521 -1.3452l-0.394521 -3.5872l-0.394521 -8.0712l-0.394521 1.3452l-0.394521 -8.5196l-0.394521 -7.6228l-0.394521 -5.8292l-0.394521 -5.8292l-0.394521 -4.9324l-0.394521 -4.484l-0.394521 -2.6904l-0.394521 -4.0356l-0.394521 1.3452l-0.394521 -4.484l-0.394521 -5.3808l-0.394521 -4.0356l-0.394521 5.3808l-0.394521 0l-0.394521 3.5872l-0.394521 16.5908l-0.394521 -4.484l-0.394521 -4.0356l-0.394521 9.4164l-0.394521 13.0036l-0.394521 10.7616l-0.394521 -5.3808l-0.394521 -5.8292l-0.394521 -6.2776l-0.394521 -6.726l-0.394521 -8.5196l-0.394521 -8.968l-0.394521 -7.1744l-0.394521 -6.2776l-0.394521 -4.0356l-0.394521 -1.3452l-0.394521 -4.0356l-0.394521 4.0356l-0.394521 20.178l-0.394521 25.1104l-0.394521 -2.6904l-0.394521 -5.8292l-0.394521 0.4484l-0.394521 -6.2776l-0.394521 6.2776l-0.394521 -3.1388l-0.394521 -7.6228l-0.394521 -7.1744l-0.394521 -6.726l-0.394521 -7.6228l-0.394521 -8.5196l-0.394521 -6.726l-0.394521 -5.3808l-0.394521 -4.484l-0.394521 -5.8292l-0.394521 -4.484l-0.394521 -4.0356l-0.394521 -4.484l-0.394521 -4.0356l-0.394521 -2.242l-0.394521 3.5872l-0.394521 -3.5872l-0.394521 3.1388l-0.394521 -2.242l-0.394521 -2.242l-0.394521 3.5872l-0.394521 0.4484l-0.394521 -2.6904l-0.394521 -0.4484l-0.394521 -0.8968l-0.394521 -3.5872l-0.394521 -4.0356l-0.394521 -3.1388l-0.394521 -3.5872l-0.394521 -2.6904l-0.394521 3.1388l-0.394521 0l-0.394521 6.726l-0.394521 5.3808l-0.394521 -2.6904l-0.394521 -3.5872l-0.394521 -2.6904l-0.394521 2.6904l-0.394521 11.6584l-0.394521 -3.1388l-0.394521 -0.8968l-0.394521 0.8968l-0.394521 -0.8968l-0.394521 -2.242l-0.394521 -3.5872l-0.394521 -3.1388l-0.394521 -0.8968l-0.394521 0l-0.394521 0.4484l-0.789041 0l-0.394521 -1.7936l-0.394521 0.4484l-0.394521 7.6228l-0.394521 -1.7936l-0.394521 -1.7936l-0.394521 -1.7936l-0.394521 0.4484l-0.394521 -0.4484l-0.394521 -2.242l-0.394521 -0.4484l-0.394521 0.4484l-0.394521 -0.4484l-0.394521 0l-0.394521 1.7936l-0.394521 3.1388l-0.394521 0.4484l-0.394521 1.3452l-0.394521 1.7936l-0.394521 -1.3452l-0.394521 -0.8968l-0.394521 0.4484l-0.394521 -1.3452l-0.394521 0.8968l-0.394521 -1.3452l-0.394521 -1.3452l-0.394521 2.6904l-0.394521 0.4484l-0.394521 4.0356l-0.394521 6.726l-0.394521 2.6904l-0.394521 3.5872l-0.394521 5.8292l-0.394521 0l-0.394521 0.4484l-0.394521 -1.3452l-0.394521 2.6904l-0.394521 3.5872l-0.394521 0.4484l-0.394521 -0.4484l-0.394521 0.4484l-0.394521 -2.242l-0.394521 -1.3452l-0.394521 0.4484l-0.394521 -0.4484l-0.394521 5.3808l-0.394521 4.484l-0.394521 7.6228l-0.394521 10.7616l-0.394521 3.5872l-0.394521 1.7936l-0.394521 14.3488l-0.394521 16.5908l-0.394521 4.9324l-0.394521 2.242l-0.394521 0l-0.394521 -0.4484l-0.394521 -0.4484l-0.394521 1.3452l-0.394521 1.7936l-0.394521 5.3808l-0.394521 9.8648l-0.394521 11.6584l-0.394521 4.484l-0.394521 3.5872l-0.789041 0l-0.394521 -0.4484l-0.394521 -0.4484l-0.394521 1.3452l-0.394521 22.8684l-0.394521 4.484l-0.394521 0.4484l-0.394521 0.8968l-0.394521 4.0356l-0.394521 0l-0.394521 0.4484l-0.394521 0l-0.394521 -0.4484l-0.394521 -0.8968l-0.394521 -0.8968l-0.394521 3.1388l-0.394521 0.8968l-0.394521 -1.3452l-0.394521 -0.4484l-0.394521 5.3808l-0.394521 4.0356l-0.394521 0.8968l-0.394521 5.8292l-0.394521 1.7936l-0.394521 1.3452l-0.394521 1.3452l-0.394521 1.3452l-0.394521 0l-0.394521 -0.4484l-0.394521 -1.7936l-0.394521 -0.8968l-0.394521 -1.3452l-0.394521 7.6228l-0.394521 1.7936l-0.394521 5.8292l-0.394521 30.4912l-0.394521 31.388l-0.394521 0.8968l-0.394521 0.8968l-0.394521 23.7652l-0.394521 4.9324l-0.394521 -0.4484l-0.394521 -0.4484l-0.394521 0.8968l-0.394521 2.242l-1.18356 0l-0.394521 -0.4484l-0.394521 -0.4484l-0.394521 -0.4484l-0.394521 -0.4484l-0.394521 0.8968l-0.394521 0l-0.394521 -0.4484l-0.394521 -0.4484l-0.394521 -0.8968l-0.394521 4.484l-0.394521 6.2776l-0.394521 -0.8968l-0.394521 5.8292l-0.394521 0.4484l-0.394521 0.4484l-0.394521 5.3808l-0.394521 0l-0.394521 -0.8968l-0.394521 -0.8968l-0.394521 5.8292l-0.394521 -0.4484l-0.394521 -0.4484l-0.394521 -0.8968l-0.394521 -0.4484l-0.394521 0l-0.394521 -0.8968l-0.394521 -0.4484l-0.394521 -0.4484l-0.394521 -0.4484l-0.394521 -0.4484l-0.394521 -0.4484l-0.394521 -0.8968l-0.394521 0l-0.394521 -0.4484l-0.394521 -0.8968l-0.394521 -0.4484l-0.394521 -0.8968l-0.394521 -1.3452l-0.394521 -0.8968l-0.394521 -0.4484l-0.394521 -0.8968l-0.394521 -1.7936l-0.394521 -1.3452l-0.394521 -1.3452l-0.394521 -1.7936l-0.394521 -1.7936l-0.394521 7.1744l-0.394521 1.3452l-0.394521 0.8968l-0.394521 1.7936l-0.394521 -0.8968l-0.394521 2.6904l-0.394521 -0.8968l-0.394521 -0.4484l-0.394521 -0.8968l-0.394521 -0.8968l-0.394521 0.4484l-0.394521 -0.8968l-0.394521 -1.3452l-0.394521 -1.3452l-0.394521 0.4484l-0.394521 -0.8968l-0.394521 -0.8968l-0.394521 -1.3452l-0.394521 -1.3452l-0.394521 -2.242l-0.394521 -1.7936l-0.394521 -1.7936l-0.394521 -1.7936l-0.394521 -0.8968l-0.394521 0l-0.394521 -2.242l-0.394521 -3.1388l-0.394521 -4.0356l-0.394521 -4.9324l-0.394521 -4.9324l-0.394521 -4.484l-0.394521 -4.484l-0.394521 -5.8292l-0.394521 -4.0356l-0.394521 9.8648l-0.394521 35.4236l-0.394521 3.5872l-0.394521 -0.4484l-0.394521 -0.8968l-0.394521 -0.8968l-0.394521 -1.3452l-0.394521 -1.3452l-0.394521 -1.3452l-0.394521 -1.3452l-0.394521 -1.3452l-0.394521 -2.242l-0.394521 -2.242l-0.394521 -2.242l-0.394521 -1.7936l-0.394521 -1.7936l-0.394521 -2.242l-0.394521 -2.242l-0.394521 -3.5872l-0.394521 -4.484l-0.394521 -4.484l-0.394521 5.8292l-0.394521 -3.5872l-0.394521 -5.3808l-0.394521 -5.8292l-0.394521 -5.3808l-0.394521 -5.8292l-0.394521 -6.726l-0.394521 -6.2776l-0.394521 -6.2776l-0.394521 -1.7936l-0.394521 0l-0.394521 -4.0356l-0.394521 3.5872l-0.394521 -4.0356l-0.394521 -4.0356l-0.394521 4.9324l-0.394521 -4.484l-0.394521 -6.2776l-0.394521 -4.0356l-0.394521 -4.0356l-0.394521 -6.726l-0.394521 -0.4484l-0.394521 11.21l-0.394521 1.7936l-0.394521 -3.1388l-0.394521 -7.6228l-0.394521 -8.968l-0.394521 -7.6228l-0.394521 -7.6228l-0.394521 -8.0712l-0.394521 -7.6228l-0.394521 -6.2776l-0.394521 0.4484l-0.394521 -6.726l-0.394521 -4.9324l-0.394521 1.3452l-0.394521 -5.8292l-0.394521 -8.5196l-0.394521 -4.9324l-0.394521 -4.484l-0.394521 -5.3808l-0.394521 -8.5196l-0.394521 -8.5196l-0.394521 -1.7936l-0.394521 -7.6228l-0.394521 -6.2776l-0.394521 -8.0712l-0.394521 -4.9324l-0.394521 -8.5196l-0.394521 -6.726l-0.394521 -3.5872l-0.394521 26.0072l-0.394521 19.7296l-0.394521 20.6264l-0.394521 -1.3452l-0.394521 -4.0356l-0.394521 -1.3452l-0.394521 3.5872l-0.394521 -0.4484l-0.394521 0.4484l-0.394521 -4.0356l-0.394521 -4.484l-0.394521 -0.4484l-0.394521 -2.242l-0.394521 -2.242l-0.394521 4.9324l-0.394521 -1.3452l-0.394521 -3.5872l-0.394521 -0.4484l-0.394521 -8.5196l-0.394521 -8.0712l-0.394521 -5.3808l-0.394521 -4.0356l-0.394521 -2.6904l-0.394521 -4.0356l-0.394521 0.4484l-0.394521 -1.7936l-0.394521 -4.9324l-0.394521 8.0712l-0.394521 22.42l-0.394521 -1.3452l-0.394521 -0.8968l-0.394521 0.8968l-0.394521 -4.9324l-0.394521 -6.726l-0.394521 -7.1744l-0.394521 -5.3808l-0.394521 -5.8292l-0.394521 4.9324l-0.394521 0l-0.394521 -0.4484l-0.394521 -3.5872l-0.394521 -6.726l-0.394521 -6.2776l-0.394521 -6.2776l-0.394521 -4.9324l-0.394521 -3.5872l-0.394521 -3.1388l-0.394521 -4.484l-0.394521 -3.1388l-0.394521 -4.0356l-0.394521 -0.8968l-0.394521 1.7936l-0.394521 -1.7936l-0.394521 -3.1388l-0.394521 0l-0.394521 -3.5872l-0.394521 -4.9324l-0.394521 -4.0356l-0.394521 -2.6904l-0.394521 -1.7936l-0.394521 -0.8968l-0.394521 -1.7936l-0.394521 -1.3452l-0.394521 5.3808l-0.394521 3.5872l-0.394521 -0.8968l-0.394521 -3.1388l-0.394521 9.8648l-0.394521 5.8292l-0.394521 -3.5872l-0.394521 -1.3452l-0.394521 13.0036l-0.394521 -3.1388l-0.394521 -4.0356l-0.394521 -0.4484l-0.394521 2.242l-0.394521 1.3452l-0.394521 -3.5872l-0.394521 -4.0356l-0.394521 2.242l-0.394521 1.3452l-0.394521 -4.9324l-0.394521 0l-0.394521 -0.8968l-0.394521 -2.6904l-0.394521 -1.7936l-0.394521 0l-0.394521 -4.0356l-0.394521 -3.5872l-0.394521 -1.7936l-0.394521 1.7936l-0.394521 0.4484l-0.394521 -0.8968l-0.394521 11.6584l-0.394521 -0.4484l-0.394521 1.7936l-0.394521 -1.7936l-0.394521 -2.242l-0.394521 -2.242l-0.394521 -1.7936l-0.394521 -0.4484l-0.394521 0l-0.394521 -0.4484l-0.394521 1.3452l-0.394521 1.7936l-0.394521 0l-0.394521 0.4484l-0.394521 -0.4484l-0.394521 -0.8968l-0.394521 -1.3452l-0.394521 0.8968l-0.394521 4.484l-0.394521 -1.7936l-0.394521 0l-0.394521 -0.4484l-0.394521 3.1388l-0.394521 0.8968l-0.394521 -0.8968l-0.394521 -0.4484l-0.394521 -0.4484l-0.394521 0.4484l-0.394521 0.8968l-0.394521 -1.3452l-0.394521 -0.8968l-0.394521 -0.8968l-0.394521 0.4484l-0.394521 6.726l-0.394521 0l-0.394521 -0.4484l-0.394521 2.242l-0.394521 -1.3452l-0.394521 -0.4484l-0.394521 -0.8968l-0.394521 0.4484l-0.394521 8.0712l-0.394521 0.8968l-0.394521 0.4484l-0.394521 -0.4484l-0.394521 3.1388l-0.394521 1.7936l-0.394521 6.2776l-0.394521 5.3808l-0.394521 7.6228l-0.394521 0.4484l-0.394521 1.3452l-0.394521 0l-0.394521 -0.4484l-0.394521 0.8968l-0.394521 0.4484l-0.394521 0l-0.394521 8.0712l-0.394521 0.8968l-0.394521 3.5872l-0.394521 0.4484l-1.18356 0l-0.394521 2.242l-0.394521 0.4484l-0.394521 -0.8968l-0.394521 0l-0.394521 -0.4484l-0.394521 1.3452l-0.394521 10.3132l-0.394521 3.5872l-0.394521 3.5872l-0.394521 0.8968l-0.394521 2.6904l-0.394521 9.4164l-0.394521 2.6904l-0.789041 0l-0.394521 1.3452l-0.394521 10.7616l-0.394521 1.7936l-0.394521 0l-0.394521 8.5196l-0.394521 4.484l-0.394521 -0.4484l-0.394521 -0.8968l-0.394521 0.8968l-0.394521 3.1388l-0.394521 0.4484l-0.394521 3.1388l-0.394521 5.8292l-0.394521 -0.8968l-0.394521 0l-0.394521 1.7936l-0.394521 1.7936l-0.394521 21.5232l-0.394521 -0.8968l-0.394521 0l-0.394521 -0.4484l-0.394521 -0.4484l-0.394521 -0.8968l-0.394521 1.7936l-0.394521 6.726l-0.394521 3.5872l-0.394521 -0.4484l-0.394521 13.452l-0.394521 5.3808l-0.394521 -0.4484l-0.394521 -0.8968l-0.394521 6.2776l-0.394521 0.4484l-0.394521 -1.3452l-0.394521 -1.3452l-0.394521 -1.3452l-0.394521 -0.8968l-0.394521 -0.8968l-0.394521 -0.4484l-0.394521 -0.8968l-0.394521 -0.8968l-0.394521 -0.8968l-0.394521 -1.3452l-0.394521 5.8292l-0.394521 -0.4484l-0.394521 0.4484l-0.394521 1.3452l-0.394521 0.4484l-0.394521 -1.7936l-0.394521 -0.4484l-0.394521 0.8968l-0.394521 -0.8968l-0.394521 2.6904l-0.394521 0l-0.394521 -2.6904l-0.394521 -2.6904l-0.394521 -2.242l-0.394521 -2.242l-0.394521 -3.1388l-0.394521 4.9324l-0.394521 -0.8968l-0.394521 -0.4484l-0.394521 13.9004l-0.394521 -2.242l-0.394521 -2.6904l-0.394521 -2.242l-0.394521 -1.7936l-0.394521 5.3808l-0.394521 -1.7936l-0.394521 -0.8968l-0.394521 1.7936l-0.394521 23.3168l-0.394521 4.484l-0.394521 1.3452l-0.394521 -0.8968l-0.394521 1.3452l-0.394521 2.242l-0.394521 8.968l-0.394521 11.21l-0.394521 16.1424l-0.394521 13.452l-0.394521 6.2776l-0.394521 23.3168l-0.394521 3.5872l-0.394521 0.8968l-0.394521 2.6904l-0.394521 1.7936l-0.394521 -0.4484l-0.394521 -0.4484l-0.394521 -0.8968l-0.394521 -1.7936l-0.394521 -1.3452l-0.394521 5.8292l-0.394521 -1.7936l-0.394521 -1.7936l-0.394521 -0.4484l-0.394521 -0.8968l-0.394521 -0.4484l-0.394521 -1.3452l-0.394521 0l-0.394521 3.5872l-0.394521 3.5872l-0.394521 -2.242l-0.394521 1.7936l-0.394521 1.7936l-0.394521 -2.242l-0.394521 -1.7936l-0.394521 -1.7936l-0.394521 -1.3452l-0.394521 -1.7936l-0.394521 -2.242l-0.394521 -2.242l-0.394521 -2.6904l-0.394521 -3.1388l-0.394521 0.8968l-0.394521 1.7936l-0.394521 -4.484l-0.394521 -4.0356l-0.394521 -2.6904l-0.394521 -1.3452l-0.394521 8.0712l-0.394521 4.484l-0.394521 1.7936l-0.394521 -3.1388l-0.394521 10.3132l-0.394521 -2.242l-0.394521 -1.7936l-0.394521 -2.6904l-0.394521 -3.5872l-0.394521 -4.484l-0.394521 -3.1388l-0.394521 5.8292l-0.394521 6.2776l-0.394521 13.9004l-0.394521 1.7936l-0.394521 1.7936l-0.394521 -0.8968l-0.394521 -0.4484l-0.394521 -0.4484l-0.394521 -0.8968l-0.394521 -0.4484l-0.394521 -1.3452l-0.394521 -1.3452l-0.394521 -1.7936l-0.394521 -1.7936l-0.394521 -2.242l-0.394521 -2.242l-0.394521 -3.5872l-0.394521 -3.5872l-0.394521 -1.7936l-0.394521 1.7936l-0.394521 3.1388l-0.394521 1.3452l-0.394521 -2.6904l-0.394521 -3.5872l-0.394521 -3.1388l-0.394521 -1.7936l-0.394521 -2.6904l-0.394521 -3.5872l-0.394521 -3.1388l-0.394521 3.1388l-0.394521 1.7936l-0.394521 2.6904l-0.394521 9.4164l-0.394521 4.9324l-0.394521 -1.3452l-0.394521 -1.7936l-0.394521 -3.1388l-0.394521 0.8968l-0.394521 -1.3452l-0.394521 -0.4484l-0.394521 -0.8968l-0.394521 7.1744l-0.394521 -0.4484l-0.394521 -1.7936l-0.394521 -1.3452l-0.394521 -2.242l-0.394521 -1.7936l-0.394521 -0.8968l-0.394521 -1.7936l-0.394521 -1.7936l-0.394521 -2.6904l-0.394521 -3.1388l-0.394521 -4.0356l-0.394521 -4.484l-0.394521 -3.1388l-0.394521 -3.1388l-0.394521 -3.5872l-0.394521 7.6228l-0.394521 1.3452l-0.394521 -4.484l-0.394521 -0.8968l-0.394521 -2.6904l-0.394521 -4.9324l-0.394521 -5.8292l-0.394521 -6.2776l-0.394521 -4.484l-0.394521 -5.3808l-0.394521 -6.726l-0.394521 -5.3808l-0.394521 -4.9324l-0.394521 -6.2776l-0.394521 1.7936l-0.394521 -4.0356l-0.394521 -8.0712l-0.394521 -7.6228l-0.394521 -11.21l-0.394521 -9.8648l-0.394521 -8.968l-0.394521 2.6904l-0.394521 -4.0356l-0.394521 -3.1388l-0.394521 -5.8292l-0.394521 -6.726l-0.394521 -7.1744l-0.394521 -8.5196l-0.394521 -6.2776l-0.394521 -2.6904l-0.394521 -4.9324l-0.394521 -9.4164l-0.394521 -5.8292l-0.394521 -1.7936l-0.394521 -4.0356l-0.394521 -3.5872l-0.394521 -4.0356l-0.394521 -3.5872l-0.394521 -4.484l-0.394521 -3.1388l-0.394521 -0.8968l-0.394521 1.7936l-0.394521 4.0356l-0.394521 -4.9324l-0.394521 -5.8292l-0.394521 -2.6904l-0.394521 3.1388l-0.394521 -0.4484l-0.394521 -3.1388l-0.394521 -3.5872l-0.394521 -0.4484l-0.394521 10.7616l-0.394521 10.3132l-0.394521 -4.9324l-0.394521 -5.3808l-0.394521 0.4484l-0.394521 -6.726l-0.394521 -9.4164l-0.394521 -8.5196l-0.394521 -8.0712l-0.394521 -6.726l-0.394521 -6.2776l-0.394521 -6.2776l-0.394521 -5.8292l-0.394521 -3.5872l-0.394521 -1.7936l-0.394521 -1.7936l-0.394521 2.6904l-0.394521 -2.242l-0.394521 -5.3808l-0.394521 -4.484l-0.394521 -3.1388l-0.394521 -2.6904l-0.394521 1.7936l-0.394521 -3.1388l-0.394521 0l-0.394521 -3.1388l-0.394521 -0.4484l-0.394521 0l-0.394521 2.6904l-0.394521 1.3452l-0.394521 0l-0.394521 -0.4484l-0.394521 -2.6904l-0.394521 -1.7936l-0.394521 -3.5872l-0.394521 -3.5872l-0.394521 -0.4484l-0.394521 3.1388l-0.394521 0.4484l-0.394521 -2.242l-0.394521 3.1388l-0.394521 -1.3452l-0.394521 -1.3452l-0.394521 2.242l-0.394521 -1.7936l-0.394521 -0.4484l-0.394521 -2.242l-0.394521 -1.7936l-0.394521 1.7936l-0.394521 -0.8968l-0.394521 -1.3452l-0.394521 -0.8968l-0.394521 0.4484l-0.394521 0l-0.394521 2.6904l-0.394521 -0.4484l-0.394521 -1.3452l-0.394521 -0.8968l-0.394521 -1.7936l-0.394521 -2.242l-0.394521 0.4484l-0.394521 -0.4484l-0.394521 -1.7936l-0.394521 3.5872l-0.394521 -1.7936l-0.394521 -2.6904l-0.394521 2.6904l-0.394521 0.4484l-0.394521 0.4484l-0.394521 1.7936l-0.394521 1.7936l-0.394521 0.8968l-0.394521 5.8292l-0.394521 4.484l-0.394521 4.9324l-0.394521 -1.7936l-0.394521 0.8968l-0.394521 0l-0.394521 1.3452l-0.394521 0l-0.394521 0.8968l-0.394521 0l-0.394521 5.3808l-0.394521 -0.4484l-0.394521 -1.3452l-0.394521 -2.6904l-0.394521 1.3452l-0.394521 0.4484l-0.394521 -2.242l-0.394521 -0.8968l-0.394521 -0.8968l-0.394521 -0.4484l-0.394521 -0.4484l-0.394521 -0.4484l-0.394521 -1.3452l-0.394521 6.2776l-0.789041 0l-0.394521 3.5872l-0.394521 -0.8968l-0.394521 -0.8968l-0.394521 -0.4484l-0.394521 0.4484l-0.394521 -0.4484l-0.394521 -1.3452l-0.394521 2.242l-0.394521 -1.7936l-0.394521 -1.3452l-0.394521 3.1388l-0.394521 2.242l-0.394521 6.726l-0.394521 14.3488l-0.394521 2.242l-0.394521 5.3808l-0.394521 2.242l-0.394521 6.726l-0.394521 4.484l-0.394521 2.6904l-0.394521 0.8968l-0.394521 -0.8968l-0.394521 0.8968l-0.394521 2.6904l-0.394521 8.0712l-0.394521 -0.4484l-0.394521 5.8292l-0.394521 1.7936l-0.394521 -0.8968l-0.394521 -0.4484l-0.394521 -0.4484l-0.394521 -1.3452l-0.394521 -0.8968l-1.18356 0l-0.394521 5.3808l-0.394521 11.21l-0.394521 0.4484l-0.394521 -0.4484l-0.394521 0.8968l-0.394521 4.0356l-0.394521 -0.4484l-0.394521 -0.8968l-0.394521 2.6904l-0.394521 3.1388l-0.394521 6.2776l-0.394521 2.6904l-0.394521 1.7936l-0.394521 8.5196l-0.394521 1.3452l-0.394521 -0.4484l-0.394521 0.4484l-0.394521 8.5196l-0.394521 1.3452l-0.394521 3.5872l-0.394521 25.1104l-0.394521 3.1388l-0.394521 0.4484l-0.394521 0l-0.394521 -0.4484l-0.394521 0l-0.394521 -0.4484l-0.394521 -0.4484l-0.394521 0l-0.394521 9.4164l-0.394521 13.9004l-0.394521 5.8292l-0.394521 8.0712l-0.394521 2.242l-0.394521 1.3452l-0.394521 -2.242l-0.394521 -2.242l-0.394521 26.904l-0.394521 5.8292l-0.394521 4.9324l-0.394521 1.3452l-0.394521 -1.3452l-0.394521 -0.8968l-0.394521 1.7936l-0.394521 1.3452l-0.394521 -2.242l-0.394521 -2.242l-0.394521 -1.3452l-0.394521 2.6904l-0.394521 1.7936l-0.394521 1.7936l-0.394521 0.4484l-0.394521 -1.7936l-0.394521 -1.7936l-0.394521 -1.3452l-0.394521 -2.242l-0.394521 0.4484l-0.394521 -1.3452l-0.394521 -2.242l-0.394521 1.7936l-0.394521 4.484l-0.394521 0.4484l-0.394521 -1.3452l-0.394521 -0.4484l-0.394521 -0.4484l-0.394521 -1.3452l-0.394521 17.936l-0.394521 32.2848l-0.394521 8.0712l-0.394521 -1.3452l-0.394521 -1.3452l-0.394521 -0.4484l-0.394521 2.242l-0.394521 12.1068l-0.394521 2.242l-0.394521 8.968l-0.394521 -0.4484l-0.394521 -0.8968l-0.394521 -1.3452l-0.394521 -1.3452l-0.394521 -1.3452l-0.394521 -1.3452l-0.394521 0.8968l-0.394521 -1.7936l-0.394521 -0.8968l-0.394521 0l-0.394521 -1.7936l-0.394521 -0.8968l-0.394521 -2.242l-0.394521 -2.242l-0.394521 -2.242l-0.394521 -1.7936l-0.394521 -2.6904l-0.394521 -2.6904l-0.394521 -3.5872l-0.394521 -1.7936l-0.394521 -0.8968l-0.394521 2.242l-0.394521 4.9324l-0.394521 -0.8968l-0.394521 -2.6904l-0.394521 9.8648l-0.394521 1.7936l-0.394521 -1.7936l-0.394521 -2.242l-0.394521 -1.7936l-0.394521 -2.6904l-0.394521 -2.6904l-0.394521 -3.1388l-0.394521 -1.3452l-0.394521 3.1388l-0.394521 0l-0.394521 -1.3452l-0.394521 -1.7936l-0.394521 -1.3452l-0.394521 -4.0356l-0.394521 -5.3808l-0.394521 -5.3808l-0.394521 -4.9324l-0.394521 -5.3808l-0.394521 8.0712l-0.394521 11.21l-0.394521 -2.242l-0.394521 -4.9324l-0.394521 -3.5872l-0.394521 -4.9324l-0.394521 -5.3808l-0.394521 -5.8292l-0.394521 -5.8292l-0.394521 -5.3808l-0.394521 4.9324l-0.394521 7.1744l-0.394521 10.3132l-0.394521 0.4484l-0.394521 3.1388l-0.394521 -4.9324l-0.394521 -6.2776l-0.394521 -4.9324l-0.394521 -5.3808l-0.394521 -4.9324l-0.394521 -4.484l-0.394521 -5.8292l-0.394521 -6.726l-0.394521 -0.8968l-0.394521 19.7296l-0.394521 -5.8292l-0.394521 -5.8292l-0.394521 6.726l-0.394521 3.1388l-0.394521 -3.1388l-0.394521 -4.9324l-0.394521 -4.0356l-0.394521 -7.6228l-0.394521 -7.6228l-0.394521 -8.5196l-0.394521 -2.6904l-0.394521 7.1744l-0.394521 8.5196l-0.394521 -5.8292l-0.394521 -8.0712l-0.394521 -7.6228l-0.394521 -8.5196l-0.394521 -8.0712l-0.394521 -8.5196l-0.394521 -8.968l-0.394521 -7.1744l-0.394521 -2.6904l-0.394521 -3.1388l-0.394521 1.7936l-0.394521 -2.6904l-0.394521 -7.6228l-0.394521 -6.726l-0.394521 -5.8292l-0.394521 -2.6904l-0.394521 -2.242l-0.394521 -5.3808l-0.394521 14.3488l-0.394521 7.1744l-0.394521 13.9004l-0.394521 12.5552l-0.394521 -5.3808l-0.394521 -7.6228l-0.394521 -6.2776l-0.394521 -4.9324l-0.394521 -6.2776l-0.394521 4.0356l-0.394521 -1.3452l-0.394521 -0.4484l-0.394521 -0.8968l-0.394521 1.7936l-0.394521 -7.1744l-0.394521 -4.0356l-0.394521 -5.3808l-0.394521 4.9324l-0.394521 16.5908l-0.394521 -1.3452l-0.394521 -4.9324l-0.394521 -6.726l-0.394521 -9.4164l-0.394521 -8.5196l-0.394521 -8.5196l-0.394521 -6.726l-0.394521 -4.484l-0.394521 4.9324l-0.394521 -4.0356l-0.394521 -8.5196l-0.394521 -4.9324l-0.394521 -6.2776l-0.394521 -6.2776l-0.394521 0.8968l-0.394521 3.5872l-0.394521 0l-0.394521 -7.1744l-0.394521 -8.968l-0.394521 -0.4484l-0.394521 5.3808l-0.394521 -5.8292l-0.394521 -0.4484l-0.394521 -0.4484l-0.394521 -8.968l-0.394521 -8.5196l-0.394521 -8.0712l-0.394521 -4.484l-0.394521 0.4484l-0.394521 -3.1388l-0.394521 -4.484l-0.394521 -0.8968l-0.394521 0.4484l-0.394521 -3.5872l-0.394521 2.6904l-0.394521 0.8968l-0.394521 2.242l-0.394521 -3.5872l-0.394521 -5.3808l-0.394521 0.8968l-0.394521 -4.9324l-0.394521 -4.9324l-0.394521 -4.484l-0.394521 -4.484l-0.394521 -4.9324l-0.394521 -5.3808l-0.394521 -5.8292l-0.394521 -3.5872l-0.394521 0.8968l-0.394521 1.7936l-0.394521 0l-0.394521 8.5196l-0.394521 8.968l-0.394521 4.484l-0.394521 -1.3452l-0.394521 0.8968l-0.394521 -0.4484l-0.394521 -3.1388l-0.394521 -3.1388l-0.394521 0.4484l-0.394521 0.8968l-0.394521 -4.484l-0.394521 -4.0356l-0.394521 -0.8968l-0.394521 -1.3452l-0.394521 -4.9324l-0.394521 -5.8292l-0.394521 -1.3452l-0.394521 0l-0.394521 -0.4484l-0.394521 2.242l-0.394521 4.0356l-0.394521 -0.8968l-0.394521 -4.0356l-0.394521 -4.0356l-0.394521 -2.6904l-0.394521 0l-0.394521 -1.3452l-0.394521 -0.4484"/>
</g>
</g>
</g>
</g>
<g inkscape:groupmode="layer" inkscape:label="Coastline" id="Coastline"><title>Coastline</title>
<g>
<g id="drawing" transform="translate(40,392.75)">
<g stroke-width="0.5px" stroke="rgb(178,178,178)" fill="none" stroke-dasharray="0.5,1">
<path d="M0 -484.272l720 0"/>
<path d="M0 -538.08l720 0"/>
<path d="M0 -591.888l720 0"/>
<path d="M0 -645.696l720 0"/>
<path d="M0 -699.504l720 0"/>
<path d="M0 -753.312l720 0"/>
<path d="M0 -807.12l720 0"/>
</g>
</g>
<g id="left" transform="translate(13.064,392.75)">
<g stroke-width="1px" stroke="rgb(0,0,0)" fill="none">
<path d="M26.936 -433.154l0 -377.104"/>
<path d="M21.5488 -484.272l5.38721 0"/>
<path d="M21.5488 -538.08l5.38721 0"/>
<path d="M21.5488 -591.888l5.38721 0"/>
<path d="M21.5488 -645.696l5.38721 0"/>
<path d="M21.5488 -699.504l5.38721 0"/>
<path d="M21.5488 -753.312l5.38721 0"/>
<path d="M21.5488 -807.12l5.38721 0"/>
</g>
<g text-anchor="end" font-size="0.3cm" font-family="Helvetica" fill="rgb(0,0,0)">
<text x="21.1448" y="-484.272" dominant-baseline="middle">270</text>
<text x="21.1448" y="-591.888" dominant-baseline="middle">330</text>
<text x="21.1448" y="-699.504" dominant-baseline="middle">390</text>
<text x="21.1448" y="-807.12" dominant-baseline="middle">450</text>
</g>
<g text-anchor="middle" font-size="0.24cm" font-family="Helvetica" transform="rotate(269.863,-11.1785,-621.707)" fill="rgb(0,0,0)">
<text x="-11.1785" y="-621.707" dominant-baseline="alphabetic">mrso</text>
</g>
</g>
</g>
</g>
<g inkscape:groupmode="layer" inkscape:label="Coastline" id="Coastline"><title>Coastline</title>
<g>
<g id="drawing" transform="translate(40,392.75)">
<g stroke-width="0.5px" stroke="rgb(178,178,178)" fill="none" stroke-dasharray="0.5,1">
<path d="M144.197 -433.154l0 -377.104"/>
<path d="M288.197 -433.154l0 -377.104"/>
<path d="M432.197 -433.154l0 -377.104"/>
<path d="M576.197 -433.154l0 -377.104"/>
</g>
</g>
<g id="bottom" transform="translate(40,-11.4662)">
<g stroke-width="1px" stroke="rgb(0,0,0)" fill="none">
<path d="M0 -28.9378l720 0"/>
<path d="M144.197 -24.8974l0 -4.0404"/>
<path d="M288.197 -24.8974l0 -4.0404"/>
<path d="M432.197 -24.8974l0 -4.0404"/>
<path d="M576.197 -24.8974l0 -4.0404"/>
</g>
<g text-anchor="middle" font-size="0.24cm" font-family="Helvetica" fill="rgb(0,0,0)">
<text x="144.197" y="-14.123" dominant-baseline="no-change">2097</text>
<text x="432.197" y="-14.123" dominant-baseline="no-change">2099</text>
<text x="360" y="-3.34859" dominant-baseline="no-change">Time</text>
</g>
</g>
</g>
</g>
<g inkscape:groupmode="layer" inkscape:label="Coastline" id="Coastline"><title>Coastline</title>
<g>
<g id="drawing" transform="translate(40,392.75)">
<g stroke-width="1px" stroke="rgb(51,51,51)" fill="none">
<path d="M0 -433.154l0 -377.104l720 0l0 377.104l-720 0"/>
</g>
</g>
</g>
</g>
<g id="Clone of page">
<g>
<g id="TextVisitor0" transform="translate(40.404,-444.444)">
<g text-anchor="start" font-size="0.36cm" font-family="Arial" fill="rgb(0,0,0)">
<text x="0.538721" y="-2.6936" dominant-baseline="no-change">Variable : mrso[kg m-2]  Date :  2096-01-01 12:00:00 -- 2100-12-31 12:00:00</text>
</g>
</g>
</g>
</g>
<g id="Clone for legend">
<g>
<g id="legend" transform="translate(40,-420.202)">
<g transform="translate(36,-26.8687)">
<g stroke-width="2px" stroke="rgb(255,0,0)" fill="none">
<path d="M25.92 12.7273l207.36 0"/>
</g>
<g text-anchor="start" font-size="0.18cm" font-family="Helvetica" fill="rgb(0,0,0)">
<text x="259.2" y="12.7273" dominant-baseline="middle">data_1</text>
</g>
</g>
</g>
</g>
</g>
</g>
</g><!--ePage-->
</svg>
